<svg width="862" height="277" viewBox="0 0 862 277" fill="none" xmlns="http://www.w3.org/2000/svg">
<rect x="0.5" y="103.5" width="146" height="44" fill="#FFE600" stroke="#FFFAFA"/>
<rect x="204.5" y="103.5" width="146" height="44" fill="#D9D9D9" stroke="white"/>
<rect x="715.5" y="219.5" width="146" height="44" fill="#FF0000" stroke="white"/>
<rect x="715.5" y="0.5" width="146" height="72" fill="#B2FB78" stroke="white"/>
<rect x="430.5" y="219.5" width="146" height="44" fill="#FF0000" stroke="white"/>
<rect x="430.5" y="0.5" width="146" height="44" fill="#B2FB78" stroke="white"/>
<path d="M43.6051 133V121.364H48.196C49.0786 121.364 49.8305 121.532 50.4517 121.869C51.0729 122.203 51.5464 122.667 51.8722 123.261C52.2017 123.852 52.3665 124.534 52.3665 125.307C52.3665 126.08 52.1998 126.761 51.8665 127.352C51.5331 127.943 51.0502 128.403 50.4176 128.733C49.7888 129.062 49.0275 129.227 48.1335 129.227H45.2074V127.256H47.7358C48.2093 127.256 48.5994 127.174 48.9062 127.011C49.2169 126.845 49.4479 126.616 49.5994 126.324C49.7547 126.028 49.8324 125.689 49.8324 125.307C49.8324 124.92 49.7547 124.583 49.5994 124.295C49.4479 124.004 49.2169 123.778 48.9062 123.619C48.5956 123.456 48.2017 123.375 47.7244 123.375H46.0653V133H43.6051ZM53.919 133V124.273H56.2656V125.795H56.3565C56.5156 125.254 56.7827 124.845 57.1577 124.568C57.5327 124.288 57.9645 124.148 58.4531 124.148C58.5743 124.148 58.705 124.155 58.8452 124.17C58.9853 124.186 59.1084 124.206 59.2145 124.233V126.381C59.1009 126.347 58.9437 126.316 58.7429 126.29C58.5421 126.263 58.3584 126.25 58.1918 126.25C57.8357 126.25 57.5175 126.328 57.2372 126.483C56.9607 126.634 56.741 126.847 56.5781 127.119C56.419 127.392 56.3395 127.706 56.3395 128.062V133H53.919ZM64.0028 133.17C63.1203 133.17 62.357 132.983 61.7131 132.608C61.0729 132.229 60.5786 131.703 60.2301 131.028C59.8816 130.35 59.7074 129.564 59.7074 128.67C59.7074 127.769 59.8816 126.981 60.2301 126.307C60.5786 125.629 61.0729 125.102 61.7131 124.727C62.357 124.348 63.1203 124.159 64.0028 124.159C64.8854 124.159 65.6468 124.348 66.2869 124.727C66.9309 125.102 67.4271 125.629 67.7756 126.307C68.1241 126.981 68.2983 127.769 68.2983 128.67C68.2983 129.564 68.1241 130.35 67.7756 131.028C67.4271 131.703 66.9309 132.229 66.2869 132.608C65.6468 132.983 64.8854 133.17 64.0028 133.17ZM64.0142 131.295C64.4157 131.295 64.7509 131.182 65.0199 130.955C65.2888 130.723 65.4915 130.409 65.6278 130.011C65.768 129.614 65.8381 129.161 65.8381 128.653C65.8381 128.146 65.768 127.693 65.6278 127.295C65.4915 126.898 65.2888 126.583 65.0199 126.352C64.7509 126.121 64.4157 126.006 64.0142 126.006C63.6089 126.006 63.268 126.121 62.9915 126.352C62.7188 126.583 62.5123 126.898 62.3722 127.295C62.2358 127.693 62.1676 128.146 62.1676 128.653C62.1676 129.161 62.2358 129.614 62.3722 130.011C62.5123 130.409 62.7188 130.723 62.9915 130.955C63.268 131.182 63.6089 131.295 64.0142 131.295ZM69.8722 133V124.273H72.179V125.812H72.2812C72.4631 125.301 72.7661 124.898 73.1903 124.602C73.6146 124.307 74.1222 124.159 74.7131 124.159C75.3116 124.159 75.821 124.309 76.2415 124.608C76.6619 124.903 76.9422 125.305 77.0824 125.812H77.1733C77.3513 125.312 77.6733 124.913 78.1392 124.614C78.6089 124.311 79.1638 124.159 79.804 124.159C80.6184 124.159 81.2794 124.419 81.7869 124.938C82.2983 125.453 82.554 126.184 82.554 127.131V133H80.1392V127.608C80.1392 127.123 80.0104 126.759 79.7528 126.517C79.4953 126.275 79.1733 126.153 78.7869 126.153C78.3475 126.153 78.0047 126.294 77.7585 126.574C77.5123 126.85 77.3892 127.216 77.3892 127.67V133H75.0426V127.557C75.0426 127.129 74.9195 126.788 74.6733 126.534C74.4309 126.28 74.1108 126.153 73.7131 126.153C73.4441 126.153 73.2017 126.222 72.9858 126.358C72.7737 126.491 72.6051 126.678 72.4801 126.92C72.3551 127.159 72.2926 127.439 72.2926 127.761V133H69.8722ZM84.4659 133V124.273H86.8864V133H84.4659ZM85.6818 123.148C85.322 123.148 85.0133 123.028 84.7557 122.79C84.5019 122.547 84.375 122.258 84.375 121.92C84.375 121.587 84.5019 121.301 84.7557 121.062C85.0133 120.82 85.322 120.699 85.6818 120.699C86.0417 120.699 86.3485 120.82 86.6023 121.062C86.8598 121.301 86.9886 121.587 86.9886 121.92C86.9886 122.258 86.8598 122.547 86.6023 122.79C86.3485 123.028 86.0417 123.148 85.6818 123.148ZM96.0866 126.761L93.8707 126.898C93.8329 126.708 93.7514 126.538 93.6264 126.386C93.5014 126.231 93.3366 126.108 93.1321 126.017C92.9313 125.922 92.6908 125.875 92.4105 125.875C92.0355 125.875 91.7192 125.955 91.4616 126.114C91.2041 126.269 91.0753 126.477 91.0753 126.739C91.0753 126.947 91.1586 127.123 91.3253 127.267C91.492 127.411 91.7779 127.527 92.1832 127.614L93.7628 127.932C94.6113 128.106 95.2438 128.386 95.6605 128.773C96.0772 129.159 96.2855 129.667 96.2855 130.295C96.2855 130.867 96.117 131.369 95.7798 131.801C95.4465 132.233 94.9882 132.57 94.4048 132.812C93.8253 133.051 93.1567 133.17 92.3991 133.17C91.2438 133.17 90.3234 132.93 89.6378 132.449C88.956 131.964 88.5563 131.305 88.4389 130.472L90.8196 130.347C90.8916 130.699 91.0658 130.968 91.3423 131.153C91.6188 131.335 91.973 131.426 92.4048 131.426C92.8291 131.426 93.17 131.345 93.4276 131.182C93.6889 131.015 93.8215 130.801 93.8253 130.54C93.8215 130.32 93.7287 130.14 93.5469 130C93.3651 129.856 93.0848 129.746 92.706 129.67L91.1946 129.369C90.3423 129.199 89.7079 128.903 89.2912 128.483C88.8783 128.062 88.6719 127.527 88.6719 126.875C88.6719 126.314 88.8234 125.831 89.1264 125.426C89.4332 125.021 89.8632 124.708 90.4162 124.489C90.973 124.269 91.6245 124.159 92.3707 124.159C93.473 124.159 94.3404 124.392 94.973 124.858C95.6094 125.324 95.9806 125.958 96.0866 126.761ZM101.787 133.17C100.889 133.17 100.116 132.989 99.4688 132.625C98.8248 132.258 98.3286 131.739 97.9801 131.068C97.6316 130.394 97.4574 129.597 97.4574 128.676C97.4574 127.778 97.6316 126.991 97.9801 126.312C98.3286 125.634 98.8191 125.106 99.4517 124.727C100.088 124.348 100.834 124.159 101.69 124.159C102.266 124.159 102.802 124.252 103.298 124.438C103.798 124.619 104.234 124.894 104.605 125.261C104.98 125.629 105.272 126.091 105.48 126.648C105.688 127.201 105.793 127.848 105.793 128.591V129.256H98.4233V127.756H103.514C103.514 127.407 103.438 127.098 103.287 126.83C103.135 126.561 102.925 126.35 102.656 126.199C102.391 126.044 102.082 125.966 101.73 125.966C101.363 125.966 101.037 126.051 100.753 126.222C100.473 126.388 100.253 126.614 100.094 126.898C99.9347 127.178 99.8532 127.491 99.8494 127.835V129.261C99.8494 129.693 99.929 130.066 100.088 130.381C100.251 130.695 100.48 130.938 100.776 131.108C101.071 131.278 101.421 131.364 101.827 131.364C102.096 131.364 102.342 131.326 102.565 131.25C102.789 131.174 102.98 131.061 103.139 130.909C103.298 130.758 103.42 130.572 103.503 130.352L105.741 130.5C105.628 131.038 105.395 131.508 105.043 131.909C104.694 132.307 104.243 132.617 103.69 132.841C103.141 133.061 102.507 133.17 101.787 133.17Z" fill="black"/>
<path d="M246.341 136.273V124.273H248.727V125.739H248.835C248.941 125.504 249.095 125.265 249.295 125.023C249.5 124.777 249.765 124.572 250.091 124.409C250.42 124.242 250.83 124.159 251.318 124.159C251.955 124.159 252.542 124.326 253.08 124.659C253.617 124.989 254.047 125.487 254.369 126.153C254.691 126.816 254.852 127.648 254.852 128.648C254.852 129.621 254.695 130.443 254.381 131.114C254.07 131.78 253.646 132.286 253.108 132.631C252.574 132.972 251.975 133.142 251.312 133.142C250.843 133.142 250.443 133.064 250.114 132.909C249.788 132.754 249.521 132.559 249.312 132.324C249.104 132.085 248.945 131.845 248.835 131.602H248.761V136.273H246.341ZM248.71 128.636C248.71 129.155 248.782 129.608 248.926 129.994C249.07 130.381 249.278 130.682 249.551 130.898C249.824 131.11 250.155 131.216 250.545 131.216C250.939 131.216 251.273 131.108 251.545 130.892C251.818 130.672 252.025 130.369 252.165 129.983C252.309 129.593 252.381 129.144 252.381 128.636C252.381 128.133 252.311 127.689 252.17 127.307C252.03 126.924 251.824 126.625 251.551 126.409C251.278 126.193 250.943 126.085 250.545 126.085C250.152 126.085 249.818 126.189 249.545 126.398C249.277 126.606 249.07 126.902 248.926 127.284C248.782 127.667 248.71 128.117 248.71 128.636ZM260.443 133.17C259.545 133.17 258.773 132.989 258.125 132.625C257.481 132.258 256.985 131.739 256.636 131.068C256.288 130.394 256.114 129.597 256.114 128.676C256.114 127.778 256.288 126.991 256.636 126.312C256.985 125.634 257.475 125.106 258.108 124.727C258.744 124.348 259.491 124.159 260.347 124.159C260.922 124.159 261.458 124.252 261.955 124.438C262.455 124.619 262.89 124.894 263.261 125.261C263.636 125.629 263.928 126.091 264.136 126.648C264.345 127.201 264.449 127.848 264.449 128.591V129.256H257.08V127.756H262.17C262.17 127.407 262.095 127.098 261.943 126.83C261.792 126.561 261.581 126.35 261.312 126.199C261.047 126.044 260.739 125.966 260.386 125.966C260.019 125.966 259.693 126.051 259.409 126.222C259.129 126.388 258.909 126.614 258.75 126.898C258.591 127.178 258.509 127.491 258.506 127.835V129.261C258.506 129.693 258.585 130.066 258.744 130.381C258.907 130.695 259.136 130.938 259.432 131.108C259.727 131.278 260.078 131.364 260.483 131.364C260.752 131.364 260.998 131.326 261.222 131.25C261.445 131.174 261.636 131.061 261.795 130.909C261.955 130.758 262.076 130.572 262.159 130.352L264.398 130.5C264.284 131.038 264.051 131.508 263.699 131.909C263.35 132.307 262.9 132.617 262.347 132.841C261.797 133.061 261.163 133.17 260.443 133.17ZM268.449 127.955V133H266.028V124.273H268.335V125.812H268.438C268.631 125.305 268.955 124.903 269.409 124.608C269.864 124.309 270.415 124.159 271.062 124.159C271.669 124.159 272.197 124.292 272.648 124.557C273.098 124.822 273.449 125.201 273.699 125.693C273.949 126.182 274.074 126.765 274.074 127.443V133H271.653V127.875C271.657 127.341 271.521 126.924 271.244 126.625C270.968 126.322 270.587 126.17 270.102 126.17C269.777 126.17 269.489 126.241 269.239 126.381C268.992 126.521 268.799 126.725 268.659 126.994C268.523 127.259 268.453 127.58 268.449 127.955ZM279.197 133.142C278.535 133.142 277.934 132.972 277.396 132.631C276.862 132.286 276.438 131.78 276.124 131.114C275.813 130.443 275.658 129.621 275.658 128.648C275.658 127.648 275.819 126.816 276.141 126.153C276.463 125.487 276.891 124.989 277.425 124.659C277.963 124.326 278.552 124.159 279.192 124.159C279.68 124.159 280.088 124.242 280.413 124.409C280.743 124.572 281.008 124.777 281.209 125.023C281.413 125.265 281.569 125.504 281.675 125.739H281.749V121.364H284.163V133H281.777V131.602H281.675C281.561 131.845 281.4 132.085 281.192 132.324C280.987 132.559 280.72 132.754 280.391 132.909C280.065 133.064 279.667 133.142 279.197 133.142ZM279.964 131.216C280.355 131.216 280.684 131.11 280.953 130.898C281.226 130.682 281.434 130.381 281.578 129.994C281.726 129.608 281.8 129.155 281.8 128.636C281.8 128.117 281.728 127.667 281.584 127.284C281.44 126.902 281.232 126.606 280.959 126.398C280.686 126.189 280.355 126.085 279.964 126.085C279.567 126.085 279.232 126.193 278.959 126.409C278.686 126.625 278.48 126.924 278.339 127.307C278.199 127.689 278.129 128.133 278.129 128.636C278.129 129.144 278.199 129.593 278.339 129.983C278.483 130.369 278.69 130.672 278.959 130.892C279.232 131.108 279.567 131.216 279.964 131.216ZM286.153 133V124.273H288.574V133H286.153ZM287.369 123.148C287.009 123.148 286.701 123.028 286.443 122.79C286.189 122.547 286.062 122.258 286.062 121.92C286.062 121.587 286.189 121.301 286.443 121.062C286.701 120.82 287.009 120.699 287.369 120.699C287.729 120.699 288.036 120.82 288.29 121.062C288.547 121.301 288.676 121.587 288.676 121.92C288.676 122.258 288.547 122.547 288.29 122.79C288.036 123.028 287.729 123.148 287.369 123.148ZM292.933 127.955V133H290.513V124.273H292.82V125.812H292.922C293.115 125.305 293.439 124.903 293.893 124.608C294.348 124.309 294.899 124.159 295.547 124.159C296.153 124.159 296.681 124.292 297.132 124.557C297.583 124.822 297.933 125.201 298.183 125.693C298.433 126.182 298.558 126.765 298.558 127.443V133H296.138V127.875C296.142 127.341 296.005 126.924 295.729 126.625C295.452 126.322 295.071 126.17 294.587 126.17C294.261 126.17 293.973 126.241 293.723 126.381C293.477 126.521 293.284 126.725 293.143 126.994C293.007 127.259 292.937 127.58 292.933 127.955ZM304.398 136.455C303.614 136.455 302.941 136.347 302.381 136.131C301.824 135.919 301.381 135.629 301.051 135.261C300.722 134.894 300.508 134.481 300.409 134.023L302.648 133.722C302.716 133.896 302.824 134.059 302.972 134.21C303.119 134.362 303.314 134.483 303.557 134.574C303.803 134.669 304.102 134.716 304.455 134.716C304.981 134.716 305.415 134.587 305.756 134.33C306.1 134.076 306.273 133.65 306.273 133.051V131.455H306.17C306.064 131.697 305.905 131.926 305.693 132.142C305.481 132.358 305.208 132.534 304.875 132.67C304.542 132.807 304.144 132.875 303.682 132.875C303.027 132.875 302.43 132.723 301.892 132.42C301.358 132.114 300.932 131.646 300.614 131.017C300.299 130.384 300.142 129.585 300.142 128.619C300.142 127.631 300.303 126.805 300.625 126.142C300.947 125.479 301.375 124.983 301.909 124.653C302.447 124.324 303.036 124.159 303.676 124.159C304.165 124.159 304.574 124.242 304.903 124.409C305.233 124.572 305.498 124.777 305.699 125.023C305.903 125.265 306.061 125.504 306.17 125.739H306.261V124.273H308.665V133.085C308.665 133.828 308.483 134.449 308.119 134.949C307.756 135.449 307.252 135.824 306.608 136.074C305.968 136.328 305.231 136.455 304.398 136.455ZM304.449 131.057C304.839 131.057 305.169 130.96 305.438 130.767C305.71 130.57 305.919 130.29 306.062 129.926C306.21 129.559 306.284 129.119 306.284 128.608C306.284 128.097 306.212 127.653 306.068 127.278C305.924 126.9 305.716 126.606 305.443 126.398C305.17 126.189 304.839 126.085 304.449 126.085C304.051 126.085 303.716 126.193 303.443 126.409C303.17 126.621 302.964 126.917 302.824 127.295C302.684 127.674 302.614 128.112 302.614 128.608C302.614 129.112 302.684 129.547 302.824 129.915C302.968 130.278 303.174 130.561 303.443 130.761C303.716 130.958 304.051 131.057 304.449 131.057Z" fill="black"/>
<path d="M448.013 27V18.2727H450.359V19.7955H450.45C450.609 19.2538 450.876 18.8447 451.251 18.5682C451.626 18.2879 452.058 18.1477 452.547 18.1477C452.668 18.1477 452.799 18.1553 452.939 18.1705C453.079 18.1856 453.202 18.2064 453.308 18.233V20.3807C453.195 20.3466 453.037 20.3163 452.837 20.2898C452.636 20.2633 452.452 20.25 452.286 20.25C451.929 20.25 451.611 20.3277 451.331 20.483C451.054 20.6345 450.835 20.8466 450.672 21.1193C450.513 21.392 450.433 21.7064 450.433 22.0625V27H448.013ZM458.131 27.1705C457.233 27.1705 456.46 26.9886 455.812 26.625C455.169 26.2576 454.672 25.7386 454.324 25.0682C453.975 24.3939 453.801 23.5966 453.801 22.6761C453.801 21.7784 453.975 20.9905 454.324 20.3125C454.672 19.6345 455.163 19.1061 455.795 18.7273C456.432 18.3485 457.178 18.1591 458.034 18.1591C458.61 18.1591 459.146 18.2519 459.642 18.4375C460.142 18.6193 460.578 18.8939 460.949 19.2614C461.324 19.6288 461.616 20.0909 461.824 20.6477C462.032 21.2008 462.136 21.8485 462.136 22.5909V23.2557H454.767V21.7557H459.858C459.858 21.4072 459.782 21.0985 459.631 20.8295C459.479 20.5606 459.269 20.3504 459 20.1989C458.735 20.0436 458.426 19.9659 458.074 19.9659C457.706 19.9659 457.381 20.0511 457.097 20.2216C456.816 20.3883 456.597 20.6136 456.438 20.8977C456.278 21.178 456.197 21.4905 456.193 21.8352V23.2614C456.193 23.6932 456.273 24.0663 456.432 24.3807C456.595 24.6951 456.824 24.9375 457.119 25.108C457.415 25.2784 457.765 25.3636 458.17 25.3636C458.439 25.3636 458.686 25.3258 458.909 25.25C459.133 25.1742 459.324 25.0606 459.483 24.9091C459.642 24.7576 459.763 24.572 459.847 24.3523L462.085 24.5C461.972 25.0379 461.739 25.5076 461.386 25.9091C461.038 26.3068 460.587 26.6174 460.034 26.8409C459.485 27.0606 458.85 27.1705 458.131 27.1705ZM470.977 20.7614L468.761 20.8977C468.723 20.7083 468.642 20.5379 468.517 20.3864C468.392 20.2311 468.227 20.108 468.023 20.017C467.822 19.9223 467.581 19.875 467.301 19.875C466.926 19.875 466.61 19.9545 466.352 20.1136C466.095 20.2689 465.966 20.4773 465.966 20.7386C465.966 20.947 466.049 21.1231 466.216 21.267C466.383 21.411 466.669 21.5265 467.074 21.6136L468.653 21.9318C469.502 22.1061 470.134 22.3864 470.551 22.7727C470.968 23.1591 471.176 23.6667 471.176 24.2955C471.176 24.8674 471.008 25.3693 470.67 25.8011C470.337 26.233 469.879 26.5701 469.295 26.8125C468.716 27.0511 468.047 27.1705 467.29 27.1705C466.134 27.1705 465.214 26.9299 464.528 26.4489C463.847 25.964 463.447 25.3049 463.33 24.4716L465.71 24.3466C465.782 24.6989 465.956 24.9678 466.233 25.1534C466.509 25.3352 466.864 25.4261 467.295 25.4261C467.72 25.4261 468.061 25.3447 468.318 25.1818C468.58 25.0152 468.712 24.8011 468.716 24.5398C468.712 24.3201 468.619 24.1402 468.438 24C468.256 23.8561 467.975 23.7462 467.597 23.6705L466.085 23.3693C465.233 23.1989 464.598 22.9034 464.182 22.483C463.769 22.0625 463.562 21.5265 463.562 20.875C463.562 20.3144 463.714 19.8314 464.017 19.4261C464.324 19.0208 464.754 18.7083 465.307 18.4886C465.864 18.2689 466.515 18.1591 467.261 18.1591C468.364 18.1591 469.231 18.392 469.864 18.858C470.5 19.3239 470.871 19.9583 470.977 20.7614ZM476.643 27.1705C475.761 27.1705 474.998 26.983 474.354 26.608C473.714 26.2292 473.219 25.7027 472.871 25.0284C472.522 24.3504 472.348 23.5644 472.348 22.6705C472.348 21.7689 472.522 20.9811 472.871 20.3068C473.219 19.6288 473.714 19.1023 474.354 18.7273C474.998 18.3485 475.761 18.1591 476.643 18.1591C477.526 18.1591 478.287 18.3485 478.928 18.7273C479.571 19.1023 480.068 19.6288 480.416 20.3068C480.765 20.9811 480.939 21.7689 480.939 22.6705C480.939 23.5644 480.765 24.3504 480.416 25.0284C480.068 25.7027 479.571 26.2292 478.928 26.608C478.287 26.983 477.526 27.1705 476.643 27.1705ZM476.655 25.2955C477.056 25.2955 477.392 25.1818 477.661 24.9545C477.929 24.7235 478.132 24.4091 478.268 24.0114C478.409 23.6136 478.479 23.161 478.479 22.6534C478.479 22.1458 478.409 21.6932 478.268 21.2955C478.132 20.8977 477.929 20.5833 477.661 20.3523C477.392 20.1212 477.056 20.0057 476.655 20.0057C476.25 20.0057 475.909 20.1212 475.632 20.3523C475.359 20.5833 475.153 20.8977 475.013 21.2955C474.876 21.6932 474.808 22.1458 474.808 22.6534C474.808 23.161 474.876 23.6136 475.013 24.0114C475.153 24.4091 475.359 24.7235 475.632 24.9545C475.909 25.1818 476.25 25.2955 476.655 25.2955ZM484.933 15.3636V27H482.513V15.3636H484.933ZM495.009 18.2727L491.957 27H489.23L486.179 18.2727H488.736L490.548 24.517H490.639L492.446 18.2727H495.009ZM499.943 27.1705C499.045 27.1705 498.273 26.9886 497.625 26.625C496.981 26.2576 496.485 25.7386 496.136 25.0682C495.788 24.3939 495.614 23.5966 495.614 22.6761C495.614 21.7784 495.788 20.9905 496.136 20.3125C496.485 19.6345 496.975 19.1061 497.608 18.7273C498.244 18.3485 498.991 18.1591 499.847 18.1591C500.422 18.1591 500.958 18.2519 501.455 18.4375C501.955 18.6193 502.39 18.8939 502.761 19.2614C503.136 19.6288 503.428 20.0909 503.636 20.6477C503.845 21.2008 503.949 21.8485 503.949 22.5909V23.2557H496.58V21.7557H501.67C501.67 21.4072 501.595 21.0985 501.443 20.8295C501.292 20.5606 501.081 20.3504 500.812 20.1989C500.547 20.0436 500.239 19.9659 499.886 19.9659C499.519 19.9659 499.193 20.0511 498.909 20.2216C498.629 20.3883 498.409 20.6136 498.25 20.8977C498.091 21.178 498.009 21.4905 498.006 21.8352V23.2614C498.006 23.6932 498.085 24.0663 498.244 24.3807C498.407 24.6951 498.636 24.9375 498.932 25.108C499.227 25.2784 499.578 25.3636 499.983 25.3636C500.252 25.3636 500.498 25.3258 500.722 25.25C500.945 25.1742 501.136 25.0606 501.295 24.9091C501.455 24.7576 501.576 24.572 501.659 24.3523L503.898 24.5C503.784 25.0379 503.551 25.5076 503.199 25.9091C502.85 26.3068 502.4 26.6174 501.847 26.8409C501.297 27.0606 500.663 27.1705 499.943 27.1705ZM506.062 22.3352C506.062 20.9261 506.25 19.6288 506.625 18.4432C507.004 17.2576 507.581 16.1591 508.358 15.1477H510.67C510.375 15.5227 510.1 15.9811 509.847 16.5227C509.593 17.0606 509.371 17.6515 509.182 18.2955C508.992 18.9394 508.845 19.6061 508.739 20.2955C508.633 20.9811 508.58 21.661 508.58 22.3352C508.58 23.233 508.67 24.1402 508.852 25.0568C509.038 25.9697 509.288 26.8182 509.602 27.6023C509.92 28.3864 510.277 29.0284 510.67 29.5284H508.358C507.581 28.517 507.004 27.4186 506.625 26.233C506.25 25.0473 506.062 23.7481 506.062 22.3352ZM520.212 18.2727L517.161 27H514.433L511.382 18.2727H513.939L515.751 24.517H515.842L517.649 18.2727H520.212ZM523.705 27.1648C523.148 27.1648 522.652 27.0682 522.216 26.875C521.78 26.678 521.436 26.3883 521.182 26.0057C520.932 25.6193 520.807 25.1383 520.807 24.5625C520.807 24.0777 520.896 23.6705 521.074 23.3409C521.252 23.0114 521.494 22.7462 521.801 22.5455C522.108 22.3447 522.456 22.1932 522.847 22.0909C523.241 21.9886 523.653 21.9167 524.085 21.875C524.593 21.822 525.002 21.7727 525.312 21.7273C525.623 21.678 525.848 21.6061 525.989 21.5114C526.129 21.4167 526.199 21.2765 526.199 21.0909V21.0568C526.199 20.697 526.085 20.4186 525.858 20.2216C525.634 20.0246 525.316 19.9261 524.903 19.9261C524.468 19.9261 524.121 20.0227 523.864 20.2159C523.606 20.4053 523.436 20.6439 523.352 20.9318L521.114 20.75C521.227 20.2197 521.451 19.7614 521.784 19.375C522.117 18.9848 522.547 18.6856 523.074 18.4773C523.604 18.2652 524.218 18.1591 524.915 18.1591C525.4 18.1591 525.864 18.2159 526.307 18.3295C526.754 18.4432 527.15 18.6193 527.494 18.858C527.843 19.0966 528.117 19.4034 528.318 19.7784C528.519 20.1496 528.619 20.5947 528.619 21.1136V27H526.324V25.7898H526.256C526.116 26.0625 525.928 26.303 525.693 26.5114C525.458 26.7159 525.176 26.8769 524.847 26.9943C524.517 27.108 524.136 27.1648 523.705 27.1648ZM524.398 25.4943C524.754 25.4943 525.068 25.4242 525.341 25.2841C525.614 25.1402 525.828 24.947 525.983 24.7045C526.138 24.4621 526.216 24.1875 526.216 23.8807V22.9545C526.14 23.0038 526.036 23.0492 525.903 23.0909C525.775 23.1288 525.629 23.1648 525.466 23.1989C525.303 23.2292 525.14 23.2576 524.977 23.2841C524.814 23.3068 524.667 23.3277 524.534 23.3466C524.25 23.3883 524.002 23.4545 523.79 23.5455C523.578 23.6364 523.413 23.7595 523.295 23.9148C523.178 24.0663 523.119 24.2557 523.119 24.483C523.119 24.8125 523.239 25.0644 523.477 25.2386C523.72 25.4091 524.027 25.4943 524.398 25.4943ZM532.918 15.3636V27H530.497V15.3636H532.918ZM540.453 23.2841V18.2727H542.874V27H540.55V25.4148H540.459C540.262 25.9261 539.934 26.3371 539.476 26.6477C539.021 26.9583 538.466 27.1136 537.811 27.1136C537.228 27.1136 536.714 26.9811 536.271 26.7159C535.828 26.4508 535.482 26.0739 535.232 25.5852C534.985 25.0966 534.86 24.5114 534.857 23.8295V18.2727H537.277V23.3977C537.281 23.9129 537.419 24.3201 537.692 24.6193C537.964 24.9186 538.33 25.0682 538.788 25.0682C539.08 25.0682 539.353 25.0019 539.607 24.8693C539.86 24.733 540.065 24.5322 540.22 24.267C540.379 24.0019 540.457 23.6742 540.453 23.2841ZM548.787 27.1705C547.889 27.1705 547.116 26.9886 546.469 26.625C545.825 26.2576 545.329 25.7386 544.98 25.0682C544.632 24.3939 544.457 23.5966 544.457 22.6761C544.457 21.7784 544.632 20.9905 544.98 20.3125C545.329 19.6345 545.819 19.1061 546.452 18.7273C547.088 18.3485 547.834 18.1591 548.69 18.1591C549.266 18.1591 549.802 18.2519 550.298 18.4375C550.798 18.6193 551.234 18.8939 551.605 19.2614C551.98 19.6288 552.272 20.0909 552.48 20.6477C552.688 21.2008 552.793 21.8485 552.793 22.5909V23.2557H545.423V21.7557H550.514C550.514 21.4072 550.438 21.0985 550.287 20.8295C550.135 20.5606 549.925 20.3504 549.656 20.1989C549.391 20.0436 549.082 19.9659 548.73 19.9659C548.363 19.9659 548.037 20.0511 547.753 20.2216C547.473 20.3883 547.253 20.6136 547.094 20.8977C546.935 21.178 546.853 21.4905 546.849 21.8352V23.2614C546.849 23.6932 546.929 24.0663 547.088 24.3807C547.251 24.6951 547.48 24.9375 547.776 25.108C548.071 25.2784 548.421 25.3636 548.827 25.3636C549.096 25.3636 549.342 25.3258 549.565 25.25C549.789 25.1742 549.98 25.0606 550.139 24.9091C550.298 24.7576 550.42 24.572 550.503 24.3523L552.741 24.5C552.628 25.0379 552.395 25.5076 552.043 25.9091C551.694 26.3068 551.243 26.6174 550.69 26.8409C550.141 27.0606 549.507 27.1705 548.787 27.1705ZM558.452 22.3352C558.452 23.7481 558.262 25.0473 557.884 26.233C557.509 27.4186 556.933 28.517 556.156 29.5284H553.844C554.139 29.1534 554.414 28.6951 554.668 28.1534C554.921 27.6117 555.143 27.0208 555.332 26.3807C555.522 25.7367 555.67 25.0701 555.776 24.3807C555.882 23.6913 555.935 23.0095 555.935 22.3352C555.935 21.4375 555.842 20.5322 555.656 19.6193C555.474 18.7027 555.224 17.8542 554.906 17.0739C554.592 16.2898 554.238 15.6477 553.844 15.1477H556.156C556.933 16.1591 557.509 17.2576 557.884 18.4432C558.262 19.6288 558.452 20.9261 558.452 22.3352Z" fill="black"/>
<path d="M448.435 247V238.273H450.781V239.795H450.872C451.031 239.254 451.298 238.845 451.673 238.568C452.048 238.288 452.48 238.148 452.969 238.148C453.09 238.148 453.221 238.155 453.361 238.17C453.501 238.186 453.624 238.206 453.73 238.233V240.381C453.616 240.347 453.459 240.316 453.259 240.29C453.058 240.263 452.874 240.25 452.707 240.25C452.351 240.25 452.033 240.328 451.753 240.483C451.476 240.634 451.257 240.847 451.094 241.119C450.935 241.392 450.855 241.706 450.855 242.062V247H448.435ZM458.553 247.17C457.655 247.17 456.882 246.989 456.234 246.625C455.59 246.258 455.094 245.739 454.746 245.068C454.397 244.394 454.223 243.597 454.223 242.676C454.223 241.778 454.397 240.991 454.746 240.312C455.094 239.634 455.585 239.106 456.217 238.727C456.854 238.348 457.6 238.159 458.456 238.159C459.032 238.159 459.568 238.252 460.064 238.438C460.564 238.619 461 238.894 461.371 239.261C461.746 239.629 462.037 240.091 462.246 240.648C462.454 241.201 462.558 241.848 462.558 242.591V243.256H455.189V241.756H460.28C460.28 241.407 460.204 241.098 460.053 240.83C459.901 240.561 459.691 240.35 459.422 240.199C459.157 240.044 458.848 239.966 458.496 239.966C458.128 239.966 457.803 240.051 457.518 240.222C457.238 240.388 457.018 240.614 456.859 240.898C456.7 241.178 456.619 241.491 456.615 241.835V243.261C456.615 243.693 456.695 244.066 456.854 244.381C457.017 244.695 457.246 244.938 457.541 245.108C457.837 245.278 458.187 245.364 458.592 245.364C458.861 245.364 459.107 245.326 459.331 245.25C459.554 245.174 459.746 245.061 459.905 244.909C460.064 244.758 460.185 244.572 460.268 244.352L462.507 244.5C462.393 245.038 462.161 245.508 461.808 245.909C461.46 246.307 461.009 246.617 460.456 246.841C459.907 247.061 459.272 247.17 458.553 247.17ZM464.138 238.273H466.558V247.432C466.558 248.106 466.426 248.652 466.161 249.068C465.895 249.485 465.515 249.79 465.018 249.983C464.526 250.176 463.937 250.273 463.251 250.273C463.168 250.273 463.089 250.271 463.013 250.267C462.933 250.267 462.85 250.265 462.763 250.261V248.369C462.827 248.373 462.884 248.375 462.933 248.375C462.979 248.379 463.028 248.381 463.081 248.381C463.471 248.381 463.744 248.297 463.899 248.131C464.058 247.968 464.138 247.722 464.138 247.392V238.273ZM465.342 237.148C464.986 237.148 464.679 237.028 464.422 236.79C464.164 236.547 464.036 236.258 464.036 235.92C464.036 235.587 464.164 235.301 464.422 235.062C464.679 234.82 464.986 234.699 465.342 234.699C465.706 234.699 466.015 234.82 466.268 235.062C466.526 235.301 466.655 235.587 466.655 235.92C466.655 236.258 466.526 236.547 466.268 236.79C466.015 237.028 465.706 237.148 465.342 237.148ZM472.474 247.17C471.577 247.17 470.804 246.989 470.156 246.625C469.512 246.258 469.016 245.739 468.668 245.068C468.319 244.394 468.145 243.597 468.145 242.676C468.145 241.778 468.319 240.991 468.668 240.312C469.016 239.634 469.507 239.106 470.139 238.727C470.776 238.348 471.522 238.159 472.378 238.159C472.954 238.159 473.49 238.252 473.986 238.438C474.486 238.619 474.921 238.894 475.293 239.261C475.668 239.629 475.959 240.091 476.168 240.648C476.376 241.201 476.48 241.848 476.48 242.591V243.256H469.111V241.756H474.202C474.202 241.407 474.126 241.098 473.974 240.83C473.823 240.561 473.613 240.35 473.344 240.199C473.079 240.044 472.77 239.966 472.418 239.966C472.05 239.966 471.724 240.051 471.44 240.222C471.16 240.388 470.94 240.614 470.781 240.898C470.622 241.178 470.541 241.491 470.537 241.835V243.261C470.537 243.693 470.616 244.066 470.776 244.381C470.938 244.695 471.168 244.938 471.463 245.108C471.759 245.278 472.109 245.364 472.514 245.364C472.783 245.364 473.029 245.326 473.253 245.25C473.476 245.174 473.668 245.061 473.827 244.909C473.986 244.758 474.107 244.572 474.19 244.352L476.429 244.5C476.315 245.038 476.082 245.508 475.73 245.909C475.382 246.307 474.931 246.617 474.378 246.841C473.829 247.061 473.194 247.17 472.474 247.17ZM482.003 247.17C481.109 247.17 480.34 246.981 479.696 246.602C479.056 246.22 478.563 245.689 478.219 245.011C477.878 244.333 477.707 243.553 477.707 242.67C477.707 241.777 477.88 240.992 478.224 240.318C478.573 239.64 479.067 239.112 479.707 238.733C480.348 238.35 481.109 238.159 481.991 238.159C482.753 238.159 483.42 238.297 483.991 238.574C484.563 238.85 485.016 239.239 485.349 239.739C485.683 240.239 485.866 240.826 485.901 241.5H483.616C483.552 241.064 483.382 240.714 483.105 240.449C482.832 240.18 482.474 240.045 482.031 240.045C481.656 240.045 481.329 240.148 481.048 240.352C480.772 240.553 480.556 240.847 480.401 241.233C480.245 241.619 480.168 242.087 480.168 242.636C480.168 243.193 480.243 243.667 480.395 244.057C480.55 244.447 480.768 244.744 481.048 244.949C481.329 245.153 481.656 245.256 482.031 245.256C482.308 245.256 482.556 245.199 482.776 245.085C482.999 244.972 483.183 244.807 483.327 244.591C483.474 244.371 483.571 244.108 483.616 243.801H485.901C485.863 244.468 485.681 245.055 485.355 245.562C485.033 246.066 484.588 246.46 484.02 246.744C483.452 247.028 482.779 247.17 482.003 247.17ZM492.092 238.273V240.091H486.837V238.273H492.092ZM488.03 236.182H490.45V244.318C490.45 244.542 490.484 244.716 490.553 244.841C490.621 244.962 490.715 245.047 490.837 245.097C490.962 245.146 491.106 245.17 491.268 245.17C491.382 245.17 491.496 245.161 491.609 245.142C491.723 245.119 491.81 245.102 491.871 245.091L492.251 246.892C492.13 246.93 491.96 246.973 491.74 247.023C491.52 247.076 491.253 247.108 490.939 247.119C490.356 247.142 489.844 247.064 489.405 246.886C488.969 246.708 488.63 246.432 488.388 246.057C488.145 245.682 488.026 245.208 488.03 244.636V236.182ZM494.203 242.335C494.203 240.926 494.391 239.629 494.766 238.443C495.144 237.258 495.722 236.159 496.499 235.148H498.811C498.516 235.523 498.241 235.981 497.987 236.523C497.733 237.061 497.512 237.652 497.322 238.295C497.133 238.939 496.985 239.606 496.879 240.295C496.773 240.981 496.72 241.661 496.72 242.335C496.72 243.233 496.811 244.14 496.993 245.057C497.179 245.97 497.429 246.818 497.743 247.602C498.061 248.386 498.417 249.028 498.811 249.528H496.499C495.722 248.517 495.144 247.419 494.766 246.233C494.391 245.047 494.203 243.748 494.203 242.335ZM500.216 247V238.273H502.562V239.795H502.653C502.813 239.254 503.08 238.845 503.455 238.568C503.83 238.288 504.261 238.148 504.75 238.148C504.871 238.148 505.002 238.155 505.142 238.17C505.282 238.186 505.405 238.206 505.511 238.233V240.381C505.398 240.347 505.241 240.316 505.04 240.29C504.839 240.263 504.655 240.25 504.489 240.25C504.133 240.25 503.814 240.328 503.534 240.483C503.258 240.634 503.038 240.847 502.875 241.119C502.716 241.392 502.636 241.706 502.636 242.062V247H500.216ZM510.334 247.17C509.436 247.17 508.663 246.989 508.016 246.625C507.372 246.258 506.875 245.739 506.527 245.068C506.179 244.394 506.004 243.597 506.004 242.676C506.004 241.778 506.179 240.991 506.527 240.312C506.875 239.634 507.366 239.106 507.999 238.727C508.635 238.348 509.381 238.159 510.237 238.159C510.813 238.159 511.349 238.252 511.845 238.438C512.345 238.619 512.781 238.894 513.152 239.261C513.527 239.629 513.819 240.091 514.027 240.648C514.235 241.201 514.339 241.848 514.339 242.591V243.256H506.97V241.756H512.061C512.061 241.407 511.985 241.098 511.834 240.83C511.682 240.561 511.472 240.35 511.203 240.199C510.938 240.044 510.629 239.966 510.277 239.966C509.91 239.966 509.584 240.051 509.3 240.222C509.019 240.388 508.8 240.614 508.641 240.898C508.482 241.178 508.4 241.491 508.396 241.835V243.261C508.396 243.693 508.476 244.066 508.635 244.381C508.798 244.695 509.027 244.938 509.322 245.108C509.618 245.278 509.968 245.364 510.374 245.364C510.643 245.364 510.889 245.326 511.112 245.25C511.336 245.174 511.527 245.061 511.686 244.909C511.845 244.758 511.966 244.572 512.05 244.352L514.288 244.5C514.175 245.038 513.942 245.508 513.589 245.909C513.241 246.307 512.79 246.617 512.237 246.841C511.688 247.061 511.054 247.17 510.334 247.17ZM518.408 247.165C517.851 247.165 517.355 247.068 516.919 246.875C516.483 246.678 516.139 246.388 515.885 246.006C515.635 245.619 515.51 245.138 515.51 244.562C515.51 244.078 515.599 243.67 515.777 243.341C515.955 243.011 516.197 242.746 516.504 242.545C516.811 242.345 517.16 242.193 517.55 242.091C517.944 241.989 518.357 241.917 518.788 241.875C519.296 241.822 519.705 241.773 520.016 241.727C520.326 241.678 520.552 241.606 520.692 241.511C520.832 241.417 520.902 241.277 520.902 241.091V241.057C520.902 240.697 520.788 240.419 520.561 240.222C520.338 240.025 520.019 239.926 519.607 239.926C519.171 239.926 518.824 240.023 518.567 240.216C518.309 240.405 518.139 240.644 518.055 240.932L515.817 240.75C515.93 240.22 516.154 239.761 516.487 239.375C516.821 238.985 517.25 238.686 517.777 238.477C518.307 238.265 518.921 238.159 519.618 238.159C520.103 238.159 520.567 238.216 521.01 238.33C521.457 238.443 521.853 238.619 522.197 238.858C522.546 239.097 522.821 239.403 523.021 239.778C523.222 240.15 523.322 240.595 523.322 241.114V247H521.027V245.79H520.959C520.819 246.062 520.631 246.303 520.396 246.511C520.161 246.716 519.879 246.877 519.55 246.994C519.22 247.108 518.839 247.165 518.408 247.165ZM519.101 245.494C519.457 245.494 519.771 245.424 520.044 245.284C520.317 245.14 520.531 244.947 520.686 244.705C520.841 244.462 520.919 244.187 520.919 243.881V242.955C520.843 243.004 520.739 243.049 520.607 243.091C520.478 243.129 520.332 243.165 520.169 243.199C520.006 243.229 519.843 243.258 519.68 243.284C519.518 243.307 519.37 243.328 519.237 243.347C518.953 243.388 518.705 243.455 518.493 243.545C518.281 243.636 518.116 243.759 517.999 243.915C517.881 244.066 517.822 244.256 517.822 244.483C517.822 244.812 517.942 245.064 518.18 245.239C518.423 245.409 518.73 245.494 519.101 245.494ZM532.462 240.761L530.246 240.898C530.208 240.708 530.126 240.538 530.001 240.386C529.876 240.231 529.712 240.108 529.507 240.017C529.306 239.922 529.066 239.875 528.786 239.875C528.411 239.875 528.094 239.955 527.837 240.114C527.579 240.269 527.45 240.477 527.45 240.739C527.45 240.947 527.534 241.123 527.7 241.267C527.867 241.411 528.153 241.527 528.558 241.614L530.138 241.932C530.986 242.106 531.619 242.386 532.036 242.773C532.452 243.159 532.661 243.667 532.661 244.295C532.661 244.867 532.492 245.369 532.155 245.801C531.821 246.233 531.363 246.57 530.78 246.812C530.2 247.051 529.532 247.17 528.774 247.17C527.619 247.17 526.698 246.93 526.013 246.449C525.331 245.964 524.931 245.305 524.814 244.472L527.195 244.347C527.267 244.699 527.441 244.968 527.717 245.153C527.994 245.335 528.348 245.426 528.78 245.426C529.204 245.426 529.545 245.345 529.803 245.182C530.064 245.015 530.196 244.801 530.2 244.54C530.196 244.32 530.104 244.14 529.922 244C529.74 243.856 529.46 243.746 529.081 243.67L527.57 243.369C526.717 243.199 526.083 242.903 525.666 242.483C525.253 242.062 525.047 241.527 525.047 240.875C525.047 240.314 525.198 239.831 525.501 239.426C525.808 239.021 526.238 238.708 526.791 238.489C527.348 238.269 528 238.159 528.746 238.159C529.848 238.159 530.715 238.392 531.348 238.858C531.984 239.324 532.356 239.958 532.462 240.761ZM538.128 247.17C537.245 247.17 536.482 246.983 535.838 246.608C535.198 246.229 534.704 245.703 534.355 245.028C534.007 244.35 533.832 243.564 533.832 242.67C533.832 241.769 534.007 240.981 534.355 240.307C534.704 239.629 535.198 239.102 535.838 238.727C536.482 238.348 537.245 238.159 538.128 238.159C539.01 238.159 539.772 238.348 540.412 238.727C541.056 239.102 541.552 239.629 541.901 240.307C542.249 240.981 542.423 241.769 542.423 242.67C542.423 243.564 542.249 244.35 541.901 245.028C541.552 245.703 541.056 246.229 540.412 246.608C539.772 246.983 539.01 247.17 538.128 247.17ZM538.139 245.295C538.541 245.295 538.876 245.182 539.145 244.955C539.414 244.723 539.616 244.409 539.753 244.011C539.893 243.614 539.963 243.161 539.963 242.653C539.963 242.146 539.893 241.693 539.753 241.295C539.616 240.898 539.414 240.583 539.145 240.352C538.876 240.121 538.541 240.006 538.139 240.006C537.734 240.006 537.393 240.121 537.116 240.352C536.844 240.583 536.637 240.898 536.497 241.295C536.361 241.693 536.293 242.146 536.293 242.653C536.293 243.161 536.361 243.614 536.497 244.011C536.637 244.409 536.844 244.723 537.116 244.955C537.393 245.182 537.734 245.295 538.139 245.295ZM546.418 241.955V247H543.997V238.273H546.304V239.812H546.406C546.599 239.305 546.923 238.903 547.378 238.608C547.832 238.309 548.384 238.159 549.031 238.159C549.637 238.159 550.166 238.292 550.616 238.557C551.067 238.822 551.418 239.201 551.668 239.693C551.918 240.182 552.043 240.765 552.043 241.443V247H549.622V241.875C549.626 241.341 549.49 240.924 549.213 240.625C548.937 240.322 548.556 240.17 548.071 240.17C547.745 240.17 547.457 240.241 547.207 240.381C546.961 240.521 546.768 240.725 546.628 240.994C546.491 241.259 546.421 241.58 546.418 241.955ZM558.03 242.335C558.03 243.748 557.84 245.047 557.462 246.233C557.087 247.419 556.511 248.517 555.734 249.528H553.422C553.717 249.153 553.992 248.695 554.246 248.153C554.5 247.612 554.721 247.021 554.911 246.381C555.1 245.737 555.248 245.07 555.354 244.381C555.46 243.691 555.513 243.009 555.513 242.335C555.513 241.437 555.42 240.532 555.234 239.619C555.053 238.703 554.803 237.854 554.484 237.074C554.17 236.29 553.816 235.648 553.422 235.148H555.734C556.511 236.159 557.087 237.258 557.462 238.443C557.84 239.629 558.03 240.926 558.03 242.335Z" fill="black"/>
<path d="M739.952 23.2727V25.0909H734.696V23.2727H739.952ZM735.889 21.1818H738.31V29.3182C738.31 29.5417 738.344 29.7159 738.412 29.8409C738.48 29.9621 738.575 30.0473 738.696 30.0966C738.821 30.1458 738.965 30.1705 739.128 30.1705C739.241 30.1705 739.355 30.161 739.469 30.142C739.582 30.1193 739.67 30.1023 739.73 30.0909L740.111 31.892C739.99 31.9299 739.819 31.9735 739.599 32.0227C739.38 32.0758 739.113 32.108 738.798 32.1193C738.215 32.142 737.704 32.0644 737.264 31.8864C736.829 31.7083 736.49 31.4318 736.247 31.0568C736.005 30.6818 735.885 30.2083 735.889 29.6364V21.1818ZM744.136 26.9545V32H741.716V20.3636H744.068V24.8125H744.17C744.367 24.2973 744.686 23.8939 745.125 23.6023C745.564 23.3068 746.116 23.1591 746.778 23.1591C747.384 23.1591 747.913 23.2917 748.364 23.5568C748.818 23.8182 749.17 24.1951 749.42 24.6875C749.674 25.1761 749.799 25.7614 749.795 26.4432V32H747.375V26.875C747.379 26.3371 747.242 25.9186 746.966 25.6193C746.693 25.3201 746.311 25.1705 745.818 25.1705C745.489 25.1705 745.197 25.2405 744.943 25.3807C744.693 25.5208 744.496 25.7254 744.352 25.9943C744.212 26.2595 744.14 26.5795 744.136 26.9545ZM755.678 32.1705C754.78 32.1705 754.007 31.9886 753.359 31.625C752.715 31.2576 752.219 30.7386 751.871 30.0682C751.522 29.3939 751.348 28.5966 751.348 27.6761C751.348 26.7784 751.522 25.9905 751.871 25.3125C752.219 24.6345 752.71 24.1061 753.342 23.7273C753.979 23.3485 754.725 23.1591 755.581 23.1591C756.157 23.1591 756.693 23.2519 757.189 23.4375C757.689 23.6193 758.125 23.8939 758.496 24.2614C758.871 24.6288 759.162 25.0909 759.371 25.6477C759.579 26.2008 759.683 26.8485 759.683 27.5909V28.2557H752.314V26.7557H757.405C757.405 26.4072 757.329 26.0985 757.178 25.8295C757.026 25.5606 756.816 25.3504 756.547 25.1989C756.282 25.0436 755.973 24.9659 755.621 24.9659C755.253 24.9659 754.928 25.0511 754.643 25.2216C754.363 25.3883 754.143 25.6136 753.984 25.8977C753.825 26.178 753.744 26.4905 753.74 26.8352V28.2614C753.74 28.6932 753.82 29.0663 753.979 29.3807C754.142 29.6951 754.371 29.9375 754.666 30.108C754.962 30.2784 755.312 30.3636 755.717 30.3636C755.986 30.3636 756.232 30.3258 756.456 30.25C756.679 30.1742 756.871 30.0606 757.03 29.9091C757.189 29.7576 757.31 29.572 757.393 29.3523L759.632 29.5C759.518 30.0379 759.286 30.5076 758.933 30.9091C758.585 31.3068 758.134 31.6174 757.581 31.8409C757.032 32.0606 756.397 32.1705 755.678 32.1705ZM763.683 26.9545V32H761.263V23.2727H763.57V24.8125H763.672C763.865 24.3049 764.189 23.9034 764.643 23.608C765.098 23.3087 765.649 23.1591 766.297 23.1591C766.903 23.1591 767.431 23.2917 767.882 23.5568C768.333 23.822 768.683 24.2008 768.933 24.6932C769.183 25.1818 769.308 25.7652 769.308 26.4432V32H766.888V26.875C766.892 26.3409 766.755 25.9242 766.479 25.625C766.202 25.322 765.821 25.1705 765.337 25.1705C765.011 25.1705 764.723 25.2405 764.473 25.3807C764.227 25.5208 764.034 25.7254 763.893 25.9943C763.757 26.2595 763.687 26.5795 763.683 26.9545ZM771.75 27.3352C771.75 25.9261 771.938 24.6288 772.312 23.4432C772.691 22.2576 773.269 21.1591 774.045 20.1477H776.358C776.063 20.5227 775.788 20.9811 775.534 21.5227C775.28 22.0606 775.059 22.6515 774.869 23.2955C774.68 23.9394 774.532 24.6061 774.426 25.2955C774.32 25.9811 774.267 26.661 774.267 27.3352C774.267 28.233 774.358 29.1402 774.54 30.0568C774.725 30.9697 774.975 31.8182 775.29 32.6023C775.608 33.3864 775.964 34.0284 776.358 34.5284H774.045C773.269 33.517 772.691 32.4186 772.312 31.233C771.938 30.0473 771.75 28.7481 771.75 27.3352ZM782.456 23.2727V25.0909H777.07V23.2727H782.456ZM778.303 32V22.642C778.303 22.0095 778.426 21.4848 778.672 21.0682C778.922 20.6515 779.263 20.339 779.695 20.1307C780.126 19.9223 780.617 19.8182 781.166 19.8182C781.537 19.8182 781.876 19.8466 782.183 19.9034C782.494 19.9602 782.725 20.0114 782.876 20.0568L782.445 21.875C782.35 21.8447 782.232 21.8163 782.092 21.7898C781.956 21.7633 781.816 21.75 781.672 21.75C781.316 21.75 781.068 21.8333 780.928 22C780.787 22.1629 780.717 22.392 780.717 22.6875V32H778.303ZM784.469 27.3352C784.469 25.9261 784.656 24.6288 785.031 23.4432C785.41 22.2576 785.988 21.1591 786.764 20.1477H789.077C788.781 20.5227 788.507 20.9811 788.253 21.5227C787.999 22.0606 787.777 22.6515 787.588 23.2955C787.399 23.9394 787.251 24.6061 787.145 25.2955C787.039 25.9811 786.986 26.661 786.986 27.3352C786.986 28.233 787.077 29.1402 787.259 30.0568C787.444 30.9697 787.694 31.8182 788.009 32.6023C788.327 33.3864 788.683 34.0284 789.077 34.5284H786.764C785.988 33.517 785.41 32.4186 785.031 31.233C784.656 30.0473 784.469 28.7481 784.469 27.3352ZM798.618 23.2727L795.567 32H792.839L789.788 23.2727H792.345L794.158 29.517H794.249L796.055 23.2727H798.618ZM802.111 32.1648C801.554 32.1648 801.058 32.0682 800.622 31.875C800.187 31.678 799.842 31.3883 799.588 31.0057C799.338 30.6193 799.213 30.1383 799.213 29.5625C799.213 29.0777 799.302 28.6705 799.48 28.3409C799.658 28.0114 799.901 27.7462 800.207 27.5455C800.514 27.3447 800.863 27.1932 801.253 27.0909C801.647 26.9886 802.06 26.9167 802.491 26.875C802.999 26.822 803.408 26.7727 803.719 26.7273C804.029 26.678 804.255 26.6061 804.395 26.5114C804.535 26.4167 804.605 26.2765 804.605 26.0909V26.0568C804.605 25.697 804.491 25.4186 804.264 25.2216C804.041 25.0246 803.723 24.9261 803.31 24.9261C802.874 24.9261 802.527 25.0227 802.27 25.2159C802.012 25.4053 801.842 25.6439 801.759 25.9318L799.52 25.75C799.634 25.2197 799.857 24.7614 800.19 24.375C800.524 23.9848 800.954 23.6856 801.48 23.4773C802.01 23.2652 802.624 23.1591 803.321 23.1591C803.806 23.1591 804.27 23.2159 804.713 23.3295C805.16 23.4432 805.556 23.6193 805.901 23.858C806.249 24.0966 806.524 24.4034 806.724 24.7784C806.925 25.1496 807.026 25.5947 807.026 26.1136V32H804.73V30.7898H804.662C804.522 31.0625 804.334 31.303 804.099 31.5114C803.865 31.7159 803.582 31.8769 803.253 31.9943C802.923 32.108 802.543 32.1648 802.111 32.1648ZM802.804 30.4943C803.16 30.4943 803.474 30.4242 803.747 30.2841C804.02 30.1402 804.234 29.947 804.389 29.7045C804.545 29.4621 804.622 29.1875 804.622 28.8807V27.9545C804.546 28.0038 804.442 28.0492 804.31 28.0909C804.181 28.1288 804.035 28.1648 803.872 28.1989C803.709 28.2292 803.546 28.2576 803.384 28.2841C803.221 28.3068 803.073 28.3277 802.94 28.3466C802.656 28.3883 802.408 28.4545 802.196 28.5455C801.984 28.6364 801.819 28.7595 801.702 28.9148C801.584 29.0663 801.526 29.2557 801.526 29.483C801.526 29.8125 801.645 30.0644 801.884 30.2386C802.126 30.4091 802.433 30.4943 802.804 30.4943ZM811.324 20.3636V32H808.903V20.3636H811.324ZM818.859 28.2841V23.2727H821.28V32H818.956V30.4148H818.865C818.668 30.9261 818.34 31.3371 817.882 31.6477C817.428 31.9583 816.873 32.1136 816.217 32.1136C815.634 32.1136 815.121 31.9811 814.678 31.7159C814.234 31.4508 813.888 31.0739 813.638 30.5852C813.392 30.0966 813.267 29.5114 813.263 28.8295V23.2727H815.683V28.3977C815.687 28.9129 815.825 29.3201 816.098 29.6193C816.371 29.9186 816.736 30.0682 817.195 30.0682C817.486 30.0682 817.759 30.0019 818.013 29.8693C818.267 29.733 818.471 29.5322 818.626 29.267C818.786 29.0019 818.863 28.6742 818.859 28.2841ZM827.193 32.1705C826.295 32.1705 825.523 31.9886 824.875 31.625C824.231 31.2576 823.735 30.7386 823.386 30.0682C823.038 29.3939 822.864 28.5966 822.864 27.6761C822.864 26.7784 823.038 25.9905 823.386 25.3125C823.735 24.6345 824.225 24.1061 824.858 23.7273C825.494 23.3485 826.241 23.1591 827.097 23.1591C827.672 23.1591 828.208 23.2519 828.705 23.4375C829.205 23.6193 829.64 23.8939 830.011 24.2614C830.386 24.6288 830.678 25.0909 830.886 25.6477C831.095 26.2008 831.199 26.8485 831.199 27.5909V28.2557H823.83V26.7557H828.92C828.92 26.4072 828.845 26.0985 828.693 25.8295C828.542 25.5606 828.331 25.3504 828.062 25.1989C827.797 25.0436 827.489 24.9659 827.136 24.9659C826.769 24.9659 826.443 25.0511 826.159 25.2216C825.879 25.3883 825.659 25.6136 825.5 25.8977C825.341 26.178 825.259 26.4905 825.256 26.8352V28.2614C825.256 28.6932 825.335 29.0663 825.494 29.3807C825.657 29.6951 825.886 29.9375 826.182 30.108C826.477 30.2784 826.828 30.3636 827.233 30.3636C827.502 30.3636 827.748 30.3258 827.972 30.25C828.195 30.1742 828.386 30.0606 828.545 29.9091C828.705 29.7576 828.826 29.572 828.909 29.3523L831.148 29.5C831.034 30.0379 830.801 30.5076 830.449 30.9091C830.1 31.3068 829.65 31.6174 829.097 31.8409C828.547 32.0606 827.913 32.1705 827.193 32.1705ZM836.858 27.3352C836.858 28.7481 836.669 30.0473 836.29 31.233C835.915 32.4186 835.339 33.517 834.562 34.5284H832.25C832.545 34.1534 832.82 33.6951 833.074 33.1534C833.328 32.6117 833.549 32.0208 833.739 31.3807C833.928 30.7367 834.076 30.0701 834.182 29.3807C834.288 28.6913 834.341 28.0095 834.341 27.3352C834.341 26.4375 834.248 25.5322 834.062 24.6193C833.881 23.7027 833.631 22.8542 833.312 22.0739C832.998 21.2898 832.644 20.6477 832.25 20.1477H834.562C835.339 21.1591 835.915 22.2576 836.29 23.4432C836.669 24.6288 836.858 25.9261 836.858 27.3352ZM841.956 30.4091L841.893 31.0341C841.844 31.5341 841.75 32.0322 841.609 32.5284C841.473 33.0284 841.329 33.4811 841.178 33.8864C841.03 34.2917 840.911 34.6098 840.82 34.8409H839.251C839.308 34.6174 839.386 34.3049 839.484 33.9034C839.583 33.5057 839.676 33.0587 839.763 32.5625C839.85 32.0663 839.905 31.5606 839.928 31.0455L839.956 30.4091H841.956ZM754.386 42.2727V44.0909H748.999V42.2727H754.386ZM750.232 51V41.642C750.232 41.0095 750.355 40.4848 750.602 40.0682C750.852 39.6515 751.192 39.339 751.624 39.1307C752.056 38.9223 752.547 38.8182 753.096 38.8182C753.467 38.8182 753.806 38.8466 754.113 38.9034C754.424 38.9602 754.655 39.0114 754.806 39.0568L754.374 40.875C754.28 40.8447 754.162 40.8163 754.022 40.7898C753.886 40.7633 753.746 40.75 753.602 40.75C753.246 40.75 752.997 40.8333 752.857 41C752.717 41.1629 752.647 41.392 752.647 41.6875V51H750.232ZM756.398 46.3352C756.398 44.9261 756.586 43.6288 756.961 42.4432C757.34 41.2576 757.917 40.1591 758.694 39.1477H761.006C760.711 39.5227 760.436 39.9811 760.183 40.5227C759.929 41.0606 759.707 41.6515 759.518 42.2955C759.328 42.9394 759.181 43.6061 759.075 44.2955C758.969 44.9811 758.915 45.661 758.915 46.3352C758.915 47.233 759.006 48.1402 759.188 49.0568C759.374 49.9697 759.624 50.8182 759.938 51.6023C760.256 52.3864 760.612 53.0284 761.006 53.5284H758.694C757.917 52.517 757.34 51.4186 756.961 50.233C756.586 49.0473 756.398 47.7481 756.398 46.3352ZM762.411 51V42.2727H764.758V43.7955H764.849C765.008 43.2538 765.275 42.8447 765.65 42.5682C766.025 42.2879 766.457 42.1477 766.945 42.1477C767.067 42.1477 767.197 42.1553 767.337 42.1705C767.478 42.1856 767.601 42.2064 767.707 42.233V44.3807C767.593 44.3466 767.436 44.3163 767.235 44.2898C767.034 44.2633 766.851 44.25 766.684 44.25C766.328 44.25 766.01 44.3277 765.729 44.483C765.453 44.6345 765.233 44.8466 765.07 45.1193C764.911 45.392 764.832 45.7064 764.832 46.0625V51H762.411ZM772.529 51.1705C771.631 51.1705 770.859 50.9886 770.211 50.625C769.567 50.2576 769.071 49.7386 768.722 49.0682C768.374 48.3939 768.2 47.5966 768.2 46.6761C768.2 45.7784 768.374 44.9905 768.722 44.3125C769.071 43.6345 769.561 43.1061 770.194 42.7273C770.83 42.3485 771.576 42.1591 772.433 42.1591C773.008 42.1591 773.544 42.2519 774.04 42.4375C774.54 42.6193 774.976 42.8939 775.347 43.2614C775.722 43.6288 776.014 44.0909 776.222 44.6477C776.431 45.2008 776.535 45.8485 776.535 46.5909V47.2557H769.165V45.7557H774.256C774.256 45.4072 774.181 45.0985 774.029 44.8295C773.878 44.5606 773.667 44.3504 773.398 44.1989C773.133 44.0436 772.825 43.9659 772.472 43.9659C772.105 43.9659 771.779 44.0511 771.495 44.2216C771.215 44.3883 770.995 44.6136 770.836 44.8977C770.677 45.178 770.595 45.4905 770.592 45.8352V47.2614C770.592 47.6932 770.671 48.0663 770.83 48.3807C770.993 48.6951 771.222 48.9375 771.518 49.108C771.813 49.2784 772.164 49.3636 772.569 49.3636C772.838 49.3636 773.084 49.3258 773.308 49.25C773.531 49.1742 773.722 49.0606 773.881 48.9091C774.04 48.7576 774.162 48.572 774.245 48.3523L776.484 48.5C776.37 49.0379 776.137 49.5076 775.785 49.9091C775.436 50.3068 774.986 50.6174 774.433 50.8409C773.883 51.0606 773.249 51.1705 772.529 51.1705ZM780.603 51.1648C780.046 51.1648 779.55 51.0682 779.114 50.875C778.679 50.678 778.334 50.3883 778.08 50.0057C777.83 49.6193 777.705 49.1383 777.705 48.5625C777.705 48.0777 777.794 47.6705 777.972 47.3409C778.15 47.0114 778.393 46.7462 778.7 46.5455C779.006 46.3447 779.355 46.1932 779.745 46.0909C780.139 45.9886 780.552 45.9167 780.984 45.875C781.491 45.822 781.9 45.7727 782.211 45.7273C782.522 45.678 782.747 45.6061 782.887 45.5114C783.027 45.4167 783.097 45.2765 783.097 45.0909V45.0568C783.097 44.697 782.984 44.4186 782.756 44.2216C782.533 44.0246 782.215 43.9261 781.802 43.9261C781.366 43.9261 781.02 44.0227 780.762 44.2159C780.504 44.4053 780.334 44.6439 780.251 44.9318L778.012 44.75C778.126 44.2197 778.349 43.7614 778.683 43.375C779.016 42.9848 779.446 42.6856 779.972 42.4773C780.503 42.2652 781.116 42.1591 781.813 42.1591C782.298 42.1591 782.762 42.2159 783.205 42.3295C783.652 42.4432 784.048 42.6193 784.393 42.858C784.741 43.0966 785.016 43.4034 785.217 43.7784C785.417 44.1496 785.518 44.5947 785.518 45.1136V51H783.222V49.7898H783.154C783.014 50.0625 782.826 50.303 782.592 50.5114C782.357 50.7159 782.075 50.8769 781.745 50.9943C781.415 51.108 781.035 51.1648 780.603 51.1648ZM781.296 49.4943C781.652 49.4943 781.967 49.4242 782.239 49.2841C782.512 49.1402 782.726 48.947 782.881 48.7045C783.037 48.4621 783.114 48.1875 783.114 47.8807V46.9545C783.039 47.0038 782.934 47.0492 782.802 47.0909C782.673 47.1288 782.527 47.1648 782.364 47.1989C782.201 47.2292 782.039 47.2576 781.876 47.2841C781.713 47.3068 781.565 47.3277 781.433 47.3466C781.148 47.3883 780.9 47.4545 780.688 47.5455C780.476 47.6364 780.311 47.7595 780.194 47.9148C780.076 48.0663 780.018 48.2557 780.018 48.483C780.018 48.8125 780.137 49.0644 780.376 49.2386C780.618 49.4091 780.925 49.4943 781.296 49.4943ZM794.657 44.7614L792.441 44.8977C792.403 44.7083 792.322 44.5379 792.197 44.3864C792.072 44.2311 791.907 44.108 791.702 44.017C791.502 43.9223 791.261 43.875 790.981 43.875C790.606 43.875 790.29 43.9545 790.032 44.1136C789.774 44.2689 789.646 44.4773 789.646 44.7386C789.646 44.947 789.729 45.1231 789.896 45.267C790.062 45.411 790.348 45.5265 790.754 45.6136L792.333 45.9318C793.182 46.1061 793.814 46.3864 794.231 46.7727C794.647 47.1591 794.856 47.6667 794.856 48.2955C794.856 48.8674 794.687 49.3693 794.35 49.8011C794.017 50.233 793.558 50.5701 792.975 50.8125C792.396 51.0511 791.727 51.1705 790.969 51.1705C789.814 51.1705 788.894 50.9299 788.208 50.4489C787.526 49.964 787.127 49.3049 787.009 48.4716L789.39 48.3466C789.462 48.6989 789.636 48.9678 789.913 49.1534C790.189 49.3352 790.543 49.4261 790.975 49.4261C791.399 49.4261 791.74 49.3447 791.998 49.1818C792.259 49.0152 792.392 48.8011 792.396 48.5398C792.392 48.3201 792.299 48.1402 792.117 48C791.935 47.8561 791.655 47.7462 791.276 47.6705L789.765 47.3693C788.913 47.1989 788.278 46.9034 787.862 46.483C787.449 46.0625 787.242 45.5265 787.242 44.875C787.242 44.3144 787.394 43.8314 787.697 43.4261C788.004 43.0208 788.433 42.7083 788.987 42.4886C789.543 42.2689 790.195 42.1591 790.941 42.1591C792.043 42.1591 792.911 42.392 793.543 42.858C794.18 43.3239 794.551 43.9583 794.657 44.7614ZM800.323 51.1705C799.441 51.1705 798.677 50.983 798.033 50.608C797.393 50.2292 796.899 49.7027 796.55 49.0284C796.202 48.3504 796.028 47.5644 796.028 46.6705C796.028 45.7689 796.202 44.9811 796.55 44.3068C796.899 43.6288 797.393 43.1023 798.033 42.7273C798.677 42.3485 799.441 42.1591 800.323 42.1591C801.206 42.1591 801.967 42.3485 802.607 42.7273C803.251 43.1023 803.747 43.6288 804.096 44.3068C804.444 44.9811 804.619 45.7689 804.619 46.6705C804.619 47.5644 804.444 48.3504 804.096 49.0284C803.747 49.7027 803.251 50.2292 802.607 50.608C801.967 50.983 801.206 51.1705 800.323 51.1705ZM800.335 49.2955C800.736 49.2955 801.071 49.1818 801.34 48.9545C801.609 48.7235 801.812 48.4091 801.948 48.0114C802.088 47.6136 802.158 47.161 802.158 46.6534C802.158 46.1458 802.088 45.6932 801.948 45.2955C801.812 44.8977 801.609 44.5833 801.34 44.3523C801.071 44.1212 800.736 44.0057 800.335 44.0057C799.929 44.0057 799.588 44.1212 799.312 44.3523C799.039 44.5833 798.833 44.8977 798.692 45.2955C798.556 45.6932 798.488 46.1458 798.488 46.6534C798.488 47.161 798.556 47.6136 798.692 48.0114C798.833 48.4091 799.039 48.7235 799.312 48.9545C799.588 49.1818 799.929 49.2955 800.335 49.2955ZM808.613 45.9545V51H806.192V42.2727H808.499V43.8125H808.602C808.795 43.3049 809.119 42.9034 809.573 42.608C810.028 42.3087 810.579 42.1591 811.227 42.1591C811.833 42.1591 812.361 42.2917 812.812 42.5568C813.263 42.822 813.613 43.2008 813.863 43.6932C814.113 44.1818 814.238 44.7652 814.238 45.4432V51H811.817V45.875C811.821 45.3409 811.685 44.9242 811.408 44.625C811.132 44.322 810.751 44.1705 810.266 44.1705C809.941 44.1705 809.653 44.2405 809.403 44.3807C809.156 44.5208 808.963 44.7254 808.823 44.9943C808.687 45.2595 808.617 45.5795 808.613 45.9545ZM820.225 46.3352C820.225 47.7481 820.036 49.0473 819.657 50.233C819.282 51.4186 818.706 52.517 817.93 53.5284H815.617C815.913 53.1534 816.187 52.6951 816.441 52.1534C816.695 51.6117 816.916 51.0208 817.106 50.3807C817.295 49.7367 817.443 49.0701 817.549 48.3807C817.655 47.6913 817.708 47.0095 817.708 46.3352C817.708 45.4375 817.615 44.5322 817.43 43.6193C817.248 42.7027 816.998 41.8542 816.68 41.0739C816.365 40.2898 816.011 39.6477 815.617 39.1477H817.93C818.706 40.1591 819.282 41.2576 819.657 42.4432C820.036 43.6288 820.225 44.9261 820.225 46.3352ZM826.772 46.3352C826.772 47.7481 826.583 49.0473 826.204 50.233C825.829 51.4186 825.253 52.517 824.477 53.5284H822.164C822.46 53.1534 822.734 52.6951 822.988 52.1534C823.242 51.6117 823.463 51.0208 823.653 50.3807C823.842 49.7367 823.99 49.0701 824.096 48.3807C824.202 47.6913 824.255 47.0095 824.255 46.3352C824.255 45.4375 824.162 44.5322 823.977 43.6193C823.795 42.7027 823.545 41.8542 823.227 41.0739C822.912 40.2898 822.558 39.6477 822.164 39.1477H824.477C825.253 40.1591 825.829 41.2576 826.204 42.4432C826.583 43.6288 826.772 44.9261 826.772 46.3352Z" fill="black"/>
<path d="M728.276 247.17C727.382 247.17 726.613 246.981 725.969 246.602C725.329 246.22 724.837 245.689 724.492 245.011C724.151 244.333 723.981 243.553 723.981 242.67C723.981 241.777 724.153 240.992 724.498 240.318C724.846 239.64 725.341 239.112 725.981 238.733C726.621 238.35 727.382 238.159 728.265 238.159C729.026 238.159 729.693 238.297 730.265 238.574C730.837 238.85 731.29 239.239 731.623 239.739C731.956 240.239 732.14 240.826 732.174 241.5H729.89C729.826 241.064 729.655 240.714 729.379 240.449C729.106 240.18 728.748 240.045 728.305 240.045C727.93 240.045 727.602 240.148 727.322 240.352C727.045 240.553 726.829 240.847 726.674 241.233C726.519 241.619 726.441 242.087 726.441 242.636C726.441 243.193 726.517 243.667 726.668 244.057C726.824 244.447 727.041 244.744 727.322 244.949C727.602 245.153 727.93 245.256 728.305 245.256C728.581 245.256 728.829 245.199 729.049 245.085C729.272 244.972 729.456 244.807 729.6 244.591C729.748 244.371 729.844 244.108 729.89 243.801H732.174C732.136 244.468 731.954 245.055 731.629 245.562C731.307 246.066 730.862 246.46 730.293 246.744C729.725 247.028 729.053 247.17 728.276 247.17ZM736.212 247.165C735.656 247.165 735.159 247.068 734.724 246.875C734.288 246.678 733.943 246.388 733.69 246.006C733.44 245.619 733.315 245.138 733.315 244.562C733.315 244.078 733.404 243.67 733.582 243.341C733.76 243.011 734.002 242.746 734.309 242.545C734.616 242.345 734.964 242.193 735.354 242.091C735.748 241.989 736.161 241.917 736.593 241.875C737.101 241.822 737.51 241.773 737.82 241.727C738.131 241.678 738.356 241.606 738.496 241.511C738.637 241.417 738.707 241.277 738.707 241.091V241.057C738.707 240.697 738.593 240.419 738.366 240.222C738.142 240.025 737.824 239.926 737.411 239.926C736.976 239.926 736.629 240.023 736.371 240.216C736.114 240.405 735.943 240.644 735.86 240.932L733.621 240.75C733.735 240.22 733.959 239.761 734.292 239.375C734.625 238.985 735.055 238.686 735.582 238.477C736.112 238.265 736.726 238.159 737.423 238.159C737.907 238.159 738.371 238.216 738.815 238.33C739.262 238.443 739.657 238.619 740.002 238.858C740.351 239.097 740.625 239.403 740.826 239.778C741.027 240.15 741.127 240.595 741.127 241.114V247H738.832V245.79H738.763C738.623 246.062 738.436 246.303 738.201 246.511C737.966 246.716 737.684 246.877 737.354 246.994C737.025 247.108 736.644 247.165 736.212 247.165ZM736.906 245.494C737.262 245.494 737.576 245.424 737.849 245.284C738.121 245.14 738.335 244.947 738.491 244.705C738.646 244.462 738.724 244.187 738.724 243.881V242.955C738.648 243.004 738.544 243.049 738.411 243.091C738.282 243.129 738.137 243.165 737.974 243.199C737.811 243.229 737.648 243.258 737.485 243.284C737.322 243.307 737.174 243.328 737.042 243.347C736.758 243.388 736.51 243.455 736.298 243.545C736.085 243.636 735.921 243.759 735.803 243.915C735.686 244.066 735.627 244.256 735.627 244.483C735.627 244.812 735.746 245.064 735.985 245.239C736.228 245.409 736.534 245.494 736.906 245.494ZM747.647 238.273V240.091H742.391V238.273H747.647ZM743.585 236.182H746.005V244.318C746.005 244.542 746.039 244.716 746.107 244.841C746.175 244.962 746.27 245.047 746.391 245.097C746.516 245.146 746.66 245.17 746.823 245.17C746.937 245.17 747.05 245.161 747.164 245.142C747.278 245.119 747.365 245.102 747.425 245.091L747.806 246.892C747.685 246.93 747.514 246.973 747.295 247.023C747.075 247.076 746.808 247.108 746.494 247.119C745.91 247.142 745.399 247.064 744.96 246.886C744.524 246.708 744.185 246.432 743.942 246.057C743.7 245.682 743.581 245.208 743.585 244.636V236.182ZM753.073 247.17C752.179 247.17 751.41 246.981 750.766 246.602C750.126 246.22 749.634 245.689 749.289 245.011C748.948 244.333 748.778 243.553 748.778 242.67C748.778 241.777 748.95 240.992 749.295 240.318C749.643 239.64 750.138 239.112 750.778 238.733C751.418 238.35 752.179 238.159 753.062 238.159C753.823 238.159 754.49 238.297 755.062 238.574C755.634 238.85 756.086 239.239 756.42 239.739C756.753 240.239 756.937 240.826 756.971 241.5H754.687C754.622 241.064 754.452 240.714 754.175 240.449C753.903 240.18 753.545 240.045 753.102 240.045C752.727 240.045 752.399 240.148 752.119 240.352C751.842 240.553 751.626 240.847 751.471 241.233C751.316 241.619 751.238 242.087 751.238 242.636C751.238 243.193 751.314 243.667 751.465 244.057C751.621 244.447 751.838 244.744 752.119 244.949C752.399 245.153 752.727 245.256 753.102 245.256C753.378 245.256 753.626 245.199 753.846 245.085C754.069 244.972 754.253 244.807 754.397 244.591C754.545 244.371 754.641 244.108 754.687 243.801H756.971C756.933 244.468 756.751 245.055 756.425 245.562C756.103 246.066 755.658 246.46 755.09 246.744C754.522 247.028 753.85 247.17 753.073 247.17ZM760.941 241.955V247H758.521V235.364H760.873V239.812H760.975C761.172 239.297 761.49 238.894 761.93 238.602C762.369 238.307 762.92 238.159 763.583 238.159C764.189 238.159 764.718 238.292 765.168 238.557C765.623 238.818 765.975 239.195 766.225 239.688C766.479 240.176 766.604 240.761 766.6 241.443V247H764.18V241.875C764.183 241.337 764.047 240.919 763.771 240.619C763.498 240.32 763.115 240.17 762.623 240.17C762.293 240.17 762.002 240.241 761.748 240.381C761.498 240.521 761.301 240.725 761.157 240.994C761.017 241.259 760.945 241.58 760.941 241.955ZM769.039 242.335C769.039 240.926 769.227 239.629 769.602 238.443C769.98 237.258 770.558 236.159 771.335 235.148H773.647C773.352 235.523 773.077 235.981 772.823 236.523C772.569 237.061 772.348 237.652 772.158 238.295C771.969 238.939 771.821 239.606 771.715 240.295C771.609 240.981 771.556 241.661 771.556 242.335C771.556 243.233 771.647 244.14 771.829 245.057C772.014 245.97 772.264 246.818 772.579 247.602C772.897 248.386 773.253 249.028 773.647 249.528H771.335C770.558 248.517 769.98 247.419 769.602 246.233C769.227 245.047 769.039 243.748 769.039 242.335ZM779.745 238.273V240.091H774.359V238.273H779.745ZM775.592 247V237.642C775.592 237.009 775.715 236.485 775.961 236.068C776.211 235.652 776.552 235.339 776.984 235.131C777.415 234.922 777.906 234.818 778.455 234.818C778.826 234.818 779.165 234.847 779.472 234.903C779.783 234.96 780.014 235.011 780.165 235.057L779.734 236.875C779.639 236.845 779.522 236.816 779.381 236.79C779.245 236.763 779.105 236.75 778.961 236.75C778.605 236.75 778.357 236.833 778.217 237C778.076 237.163 778.006 237.392 778.006 237.688V247H775.592ZM781.758 242.335C781.758 240.926 781.945 239.629 782.32 238.443C782.699 237.258 783.277 236.159 784.053 235.148H786.366C786.07 235.523 785.796 235.981 785.542 236.523C785.288 237.061 785.067 237.652 784.877 238.295C784.688 238.939 784.54 239.606 784.434 240.295C784.328 240.981 784.275 241.661 784.275 242.335C784.275 243.233 784.366 244.14 784.548 245.057C784.733 245.97 784.983 246.818 785.298 247.602C785.616 248.386 785.972 249.028 786.366 249.528H784.053C783.277 248.517 782.699 247.419 782.32 246.233C781.945 245.047 781.758 243.748 781.758 242.335ZM787.771 247V238.273H790.117V239.795H790.208C790.367 239.254 790.634 238.845 791.009 238.568C791.384 238.288 791.816 238.148 792.305 238.148C792.426 238.148 792.557 238.155 792.697 238.17C792.837 238.186 792.96 238.206 793.066 238.233V240.381C792.952 240.347 792.795 240.316 792.594 240.29C792.394 240.263 792.21 240.25 792.043 240.25C791.687 240.25 791.369 240.328 791.089 240.483C790.812 240.634 790.593 240.847 790.43 241.119C790.271 241.392 790.191 241.706 790.191 242.062V247H787.771ZM797.888 247.17C796.991 247.17 796.218 246.989 795.57 246.625C794.926 246.258 794.43 245.739 794.082 245.068C793.733 244.394 793.559 243.597 793.559 242.676C793.559 241.778 793.733 240.991 794.082 240.312C794.43 239.634 794.921 239.106 795.553 238.727C796.19 238.348 796.936 238.159 797.792 238.159C798.368 238.159 798.904 238.252 799.4 238.438C799.9 238.619 800.335 238.894 800.707 239.261C801.082 239.629 801.373 240.091 801.582 240.648C801.79 241.201 801.894 241.848 801.894 242.591V243.256H794.525V241.756H799.616C799.616 241.407 799.54 241.098 799.388 240.83C799.237 240.561 799.027 240.35 798.758 240.199C798.493 240.044 798.184 239.966 797.832 239.966C797.464 239.966 797.138 240.051 796.854 240.222C796.574 240.388 796.354 240.614 796.195 240.898C796.036 241.178 795.955 241.491 795.951 241.835V243.261C795.951 243.693 796.031 244.066 796.19 244.381C796.353 244.695 796.582 244.938 796.877 245.108C797.173 245.278 797.523 245.364 797.928 245.364C798.197 245.364 798.443 245.326 798.667 245.25C798.89 245.174 799.082 245.061 799.241 244.909C799.4 244.758 799.521 244.572 799.604 244.352L801.843 244.5C801.729 245.038 801.496 245.508 801.144 245.909C800.796 246.307 800.345 246.617 799.792 246.841C799.243 247.061 798.608 247.17 797.888 247.17ZM805.962 247.165C805.406 247.165 804.909 247.068 804.474 246.875C804.038 246.678 803.693 246.388 803.44 246.006C803.19 245.619 803.065 245.138 803.065 244.562C803.065 244.078 803.154 243.67 803.332 243.341C803.51 243.011 803.752 242.746 804.059 242.545C804.366 242.345 804.714 242.193 805.104 242.091C805.498 241.989 805.911 241.917 806.343 241.875C806.851 241.822 807.26 241.773 807.57 241.727C807.881 241.678 808.106 241.606 808.246 241.511C808.387 241.417 808.457 241.277 808.457 241.091V241.057C808.457 240.697 808.343 240.419 808.116 240.222C807.892 240.025 807.574 239.926 807.161 239.926C806.726 239.926 806.379 240.023 806.121 240.216C805.864 240.405 805.693 240.644 805.61 240.932L803.371 240.75C803.485 240.22 803.709 239.761 804.042 239.375C804.375 238.985 804.805 238.686 805.332 238.477C805.862 238.265 806.476 238.159 807.173 238.159C807.657 238.159 808.121 238.216 808.565 238.33C809.012 238.443 809.407 238.619 809.752 238.858C810.101 239.097 810.375 239.403 810.576 239.778C810.777 240.15 810.877 240.595 810.877 241.114V247H808.582V245.79H808.513C808.373 246.062 808.186 246.303 807.951 246.511C807.716 246.716 807.434 246.877 807.104 246.994C806.775 247.108 806.394 247.165 805.962 247.165ZM806.656 245.494C807.012 245.494 807.326 245.424 807.599 245.284C807.871 245.14 808.085 244.947 808.241 244.705C808.396 244.462 808.474 244.187 808.474 243.881V242.955C808.398 243.004 808.294 243.049 808.161 243.091C808.032 243.129 807.887 243.165 807.724 243.199C807.561 243.229 807.398 243.258 807.235 243.284C807.072 243.307 806.924 243.328 806.792 243.347C806.508 243.388 806.26 243.455 806.048 243.545C805.835 243.636 805.671 243.759 805.553 243.915C805.436 244.066 805.377 244.256 805.377 244.483C805.377 244.812 805.496 245.064 805.735 245.239C805.978 245.409 806.284 245.494 806.656 245.494ZM820.016 240.761L817.8 240.898C817.763 240.708 817.681 240.538 817.556 240.386C817.431 240.231 817.266 240.108 817.062 240.017C816.861 239.922 816.621 239.875 816.34 239.875C815.965 239.875 815.649 239.955 815.391 240.114C815.134 240.269 815.005 240.477 815.005 240.739C815.005 240.947 815.088 241.123 815.255 241.267C815.422 241.411 815.708 241.527 816.113 241.614L817.692 241.932C818.541 242.106 819.174 242.386 819.59 242.773C820.007 243.159 820.215 243.667 820.215 244.295C820.215 244.867 820.047 245.369 819.71 245.801C819.376 246.233 818.918 246.57 818.335 246.812C817.755 247.051 817.086 247.17 816.329 247.17C815.174 247.17 814.253 246.93 813.567 246.449C812.886 245.964 812.486 245.305 812.369 244.472L814.749 244.347C814.821 244.699 814.996 244.968 815.272 245.153C815.549 245.335 815.903 245.426 816.335 245.426C816.759 245.426 817.1 245.345 817.357 245.182C817.619 245.015 817.751 244.801 817.755 244.54C817.751 244.32 817.658 244.14 817.477 244C817.295 243.856 817.014 243.746 816.636 243.67L815.124 243.369C814.272 243.199 813.638 242.903 813.221 242.483C812.808 242.062 812.602 241.527 812.602 240.875C812.602 240.314 812.753 239.831 813.056 239.426C813.363 239.021 813.793 238.708 814.346 238.489C814.903 238.269 815.554 238.159 816.3 238.159C817.403 238.159 818.27 238.392 818.903 238.858C819.539 239.324 819.91 239.958 820.016 240.761ZM825.683 247.17C824.8 247.17 824.037 246.983 823.393 246.608C822.753 246.229 822.258 245.703 821.91 245.028C821.561 244.35 821.387 243.564 821.387 242.67C821.387 241.769 821.561 240.981 821.91 240.307C822.258 239.629 822.753 239.102 823.393 238.727C824.037 238.348 824.8 238.159 825.683 238.159C826.565 238.159 827.326 238.348 827.967 238.727C828.611 239.102 829.107 239.629 829.455 240.307C829.804 240.981 829.978 241.769 829.978 242.67C829.978 243.564 829.804 244.35 829.455 245.028C829.107 245.703 828.611 246.229 827.967 246.608C827.326 246.983 826.565 247.17 825.683 247.17ZM825.694 245.295C826.095 245.295 826.431 245.182 826.7 244.955C826.969 244.723 827.171 244.409 827.308 244.011C827.448 243.614 827.518 243.161 827.518 242.653C827.518 242.146 827.448 241.693 827.308 241.295C827.171 240.898 826.969 240.583 826.7 240.352C826.431 240.121 826.095 240.006 825.694 240.006C825.289 240.006 824.948 240.121 824.671 240.352C824.398 240.583 824.192 240.898 824.052 241.295C823.915 241.693 823.847 242.146 823.847 242.653C823.847 243.161 823.915 243.614 824.052 244.011C824.192 244.409 824.398 244.723 824.671 244.955C824.948 245.182 825.289 245.295 825.694 245.295ZM833.972 241.955V247H831.552V238.273H833.859V239.812H833.961C834.154 239.305 834.478 238.903 834.933 238.608C835.387 238.309 835.938 238.159 836.586 238.159C837.192 238.159 837.72 238.292 838.171 238.557C838.622 238.822 838.972 239.201 839.222 239.693C839.472 240.182 839.597 240.765 839.597 241.443V247H837.177V241.875C837.181 241.341 837.044 240.924 836.768 240.625C836.491 240.322 836.111 240.17 835.626 240.17C835.3 240.17 835.012 240.241 834.762 240.381C834.516 240.521 834.323 240.725 834.183 240.994C834.046 241.259 833.976 241.58 833.972 241.955ZM845.585 242.335C845.585 243.748 845.395 245.047 845.016 246.233C844.641 247.419 844.066 248.517 843.289 249.528H840.977C841.272 249.153 841.547 248.695 841.8 248.153C842.054 247.612 842.276 247.021 842.465 246.381C842.655 245.737 842.802 245.07 842.908 244.381C843.014 243.691 843.067 243.009 843.067 242.335C843.067 241.437 842.975 240.532 842.789 239.619C842.607 238.703 842.357 237.854 842.039 237.074C841.725 236.29 841.371 235.648 840.977 235.148H843.289C844.066 236.159 844.641 237.258 845.016 238.443C845.395 239.629 845.585 240.926 845.585 242.335ZM852.131 242.335C852.131 243.748 851.942 245.047 851.563 246.233C851.188 247.419 850.612 248.517 849.836 249.528H847.523C847.819 249.153 848.094 248.695 848.347 248.153C848.601 247.612 848.823 247.021 849.012 246.381C849.201 245.737 849.349 245.07 849.455 244.381C849.561 243.691 849.614 243.009 849.614 242.335C849.614 241.437 849.522 240.532 849.336 239.619C849.154 238.703 848.904 237.854 848.586 237.074C848.272 236.29 847.917 235.648 847.523 235.148H849.836C850.612 236.159 851.188 237.258 851.563 238.443C851.942 239.629 852.131 240.926 852.131 242.335Z" fill="black"/>
<path d="M204.707 125.707C205.098 125.317 205.098 124.683 204.707 124.293L198.343 117.929C197.953 117.538 197.319 117.538 196.929 117.929C196.538 118.319 196.538 118.953 196.929 119.343L202.586 125L196.929 130.657C196.538 131.047 196.538 131.681 196.929 132.071C197.319 132.462 197.953 132.462 198.343 132.071L204.707 125.707ZM147 126H204V124H147V126Z" fill="white"/>
<path d="M430 48.0065C430.004 47.4542 429.559 47.0036 429.006 47L420.007 46.942C419.454 46.9384 419.004 47.3832 419 47.9355C418.997 48.4878 419.441 48.9384 419.994 48.9419L427.994 48.9935L427.942 56.9934C427.938 57.5456 428.383 57.9962 428.935 57.9998C429.488 58.0034 429.938 57.5585 429.942 57.0063L430 48.0065ZM351.703 125.712L429.703 48.7117L428.297 47.2883L350.297 124.288L351.703 125.712Z" fill="white"/>
<path d="M428.907 219.996C429.457 220.047 429.945 219.643 429.996 219.093L430.829 210.131C430.88 209.581 430.476 209.094 429.926 209.043C429.376 208.992 428.889 209.396 428.838 209.946L428.097 217.912L420.131 217.171C419.581 217.12 419.094 217.524 419.043 218.074C418.992 218.624 419.396 219.111 419.946 219.162L428.907 219.996ZM350.23 125.639L428.23 219.639L429.77 218.361L351.77 124.361L350.23 125.639Z" fill="white"/>
<path d="M715.707 22.7071C716.098 22.3166 716.098 21.6834 715.707 21.2929L709.343 14.9289C708.953 14.5384 708.319 14.5384 707.929 14.9289C707.538 15.3195 707.538 15.9526 707.929 16.3431L713.586 22L707.929 27.6569C707.538 28.0474 707.538 28.6805 707.929 29.0711C708.319 29.4616 708.953 29.4616 709.343 29.0711L715.707 22.7071ZM577 23H715V21H577V23Z" fill="white"/>
<path d="M715.994 67.8882C715.932 67.3393 715.437 66.9445 714.888 67.0063L705.945 68.0128C705.396 68.0745 705.001 68.5695 705.063 69.1183C705.125 69.6672 705.619 70.062 706.168 70.0002L714.118 69.1056L715.013 77.0554C715.075 77.6042 715.57 77.999 716.118 77.9373C716.667 77.8755 717.062 77.3805 717 76.8317L715.994 67.8882ZM577.782 241.624L715.782 68.6236L714.218 67.3764L576.218 240.376L577.782 241.624Z" fill="white"/>
<path d="M715.707 241.707C716.098 241.317 716.098 240.683 715.707 240.293L709.343 233.929C708.953 233.538 708.319 233.538 707.929 233.929C707.538 234.319 707.538 234.953 707.929 235.343L713.586 241L707.929 246.657C707.538 247.047 707.538 247.681 707.929 248.071C708.319 248.462 708.953 248.462 709.343 248.071L715.707 241.707ZM577 242H715V240H577V242Z" fill="white"/>
</svg>
